<svg xmlns="http://www.w3.org/2000/svg" viewBox="0 0 75.2 37.8"  xmlns:v="https://vecta.io/nano"><path d="M1.5 5.4h5.8c4 0 5.9 2.2 5.9 6.2v2.5c0 4-1.9 6.2-5.9 6.2H5.4v10.3h-4V5.4zm5.8 11.3c1.3 0 1.9-.6 1.9-2.4v-3C9.3 9.6 8.6 9 7.3 9H5.4v7.7h1.9zm7.8 7.9V11.4c0-4 2.1-6.3 6-6.3s6 2.3 6 6.3v13.2c0 4-2.1 6.3-6 6.3-3.9.1-6-2.2-6-6.3zm8 .3V11.1c0-1.8-.8-2.5-2.1-2.5s-2 .7-2 2.5v13.7c0 1.8.8 2.5 2.1 2.5s2-.6 2-2.4zm6.7-19.5h4V27h6.5v3.6H29.8V5.4zm12.4 0h4v25.2h-4V5.4z" enable-background="new"/><path d="M48.8 24.8V11.2c0-3.9 2-6.2 5.8-6.2s5.8 2.3 5.8 6.2v2.7h-3.7V11c0-1.7-.8-2.3-2-2.3s-2 .7-2 2.3v14.1c0 1.7.8 2.3 2 2.3s2-.6 2-2.3v-3.9h3.7v3.6c0 3.9-2 6.2-5.8 6.2s-5.8-2.3-5.8-6.2zm17.4-4.9L61.4 5.4h4.2l2.7 9.3h.1l2.7-9.3H75l-4.8 14.5v10.7h-4V19.9z" enable-background="new"/></svg>