<svg id="Layer_1" data-name="Layer 1" xmlns="http://www.w3.org/2000/svg" viewBox="0 0 115.32 30.14"><path d="M4.81,4.6H0V.42H14.23V4.6H9.42V29.72H4.81Z"/><path d="M16.45.42h6.82c4.78,0,6.83,2.22,6.83,6.74V9c0,3-1,4.94-3,5.78v.08c2.31.71,3.06,2.89,3.06,6.19v5.15a8.63,8.63,0,0,0,.5,3.56H26a9,9,0,0,1-.42-3.6V20.76c0-2.72-.79-3.6-2.88-3.6H21.06V29.72H16.45ZM22.73,13c1.72,0,2.76-.76,2.76-3.1V7.62c0-2.09-.71-3-2.34-3H21.06V13Z"/><path d="M36.88.42h6.23l4.78,29.3H43.28l-.84-5.82V24H37.21l-.84,5.73H32.1ZM41.9,20l-2-14.48h-.09L37.76,20Z"/><path d="M50.1.42h4.61v29.3H50.1Z"/><path d="M58.14.42h5.78L68.4,18h.08V.42h4.1v29.3H67.85L62.33,8.33h-.09V29.72h-4.1Z"/><path d="M76,.42h4.61v29.3H76Z"/><path d="M84.05.42h5.78L94.31,18h.08V.42h4.1v29.3H93.76L88.23,8.33h-.08V29.72h-4.1Z"/><path d="M101.59,22.77V7.37c0-4.69,2.34-7.37,6.86-7.37s6.87,2.68,6.87,7.37V9.88H111V7.07c0-2.09-.92-2.88-2.38-2.88s-2.39.79-2.39,2.88v16c0,2.09.92,2.84,2.39,2.84S111,25.2,111,23.11V17.37h-2.3V13.19h6.66v9.58c0,4.69-2.35,7.37-6.87,7.37S101.59,27.46,101.59,22.77Z"/></svg>